# xmcd
#
# Track frame offsets:
#	150
#	13210
#	26805
#	42332
#	54041
#	65186
#	77321
#	98795
#	111315
#	122614
#	136738
#	149039
#	162559
#	181105
#	193405
#	211484
#	225193
#	249496
#	258332
#	271445
#
# Disc length: 3774 seconds
#
# Revision: 0
# Processed by: cddbd v1.5.2PL0 Copyright (c) Steve Scherf et al.
# Submitted via: dBpowerAMP V4.0
#
DISCID=1f0ebc14
DTITLE=Bobby Bare - 20 greatest Hits
DYEAR=2005
DGENRE=Country
TTITLE0=Detroit City
TTITLE1=Miller's Cave
TTITLE2=(Margie's at ) The Lincoln Park Inn
TTITLE3=Come Sundown (She'll be Gone)
TTITLE4=Please Don't Tell Me How The Story Ends
TTITLE5=Streets of Baltimore
TTITLE6=Numbers
TTITLE7=Four Strong Winds
TTITLE8=Daddy What If
TTITLE9=All American Boy
TTITLE10=Five Hundred Miles
TTITLE11=Ride Me Down Easy
TTITLE12=Tequila Sheila
TTITLE13=Green Green Grass Of Home
TTITLE14=The Jogger
TTITLE15=Marie Laveau
TTITLE16=The Winner
TTITLE17=Drop Kick Me Jesus
TTITLE18=The Mermaid Song
TTITLE19=Tender Years
EXTD=Bobby Bare 20 greatest Hits
EXTT0=
EXTT1=
EXTT2=
EXTT3=
EXTT4=
EXTT5=
EXTT6=
EXTT7=
EXTT8=
EXTT9=
EXTT10=
EXTT11=
EXTT12=
EXTT13=
EXTT14=
EXTT15=
EXTT16=
EXTT17=
EXTT18=
EXTT19=
PLAYORDER=
